<svg version="1.1" xmlns="http://www.w3.org/2000/svg" fill="#4ba7cd" width="32" height="32" viewBox="0 0 16 16">
    <title>logo</title>
    <g id="layer1">
        <g transform="translate(-0.75130096,-1.1490485)" id="g1435">
            <g id="g1413" transform="matrix(0.90677966,0,0,0.90341772,0.13295703,2.2351204)">
                <circle r="2.2097087" cy="11.094446" cx="6.9384851" id="path1376"></circle>
                <circle r="1.403165" cy="8.0119019" cx="13.534466" id="path1382"></circle>
                <g id="g1403">
                    <circle id="path1378" cx="3.1267376" cy="2.9958642" r="1.2263883"></circle>
                    <circle id="path1380" cx="8.8056889" cy="6.2220387" r="0.9612233"></circle>
                    <path d="M 3.0935921,3.051107 6.2534755,9.8791073 Z" id="path1386"></path>
                    <path d="M 7.0931649,9.9895923 8.617864,6.6971262 Z" id="path1388"></path>
                    <path d="M 7.3141358,11.094447 13.169863,8.2439224 Z" id="path1390"></path>
                </g>
            </g>
            <path d="M 10.750504,3.2460878 A 4.9386744,4.931834 0 0 0 5.8109212,8.1772061 4.9386744,
4.931834 0 0 0 5.8205912,8.4202553 4.4940569,4.4940569 0 0 1 10.305514,4.1082475 4.4940569,
4.4940569 0 0 1 14.798902,8.6016354 4.4940569,4.4940569 0 0 1 10.403459,13.092605 4.9386744,
4.931834 0 0 0 10.7505,13.109535 4.9386744,4.931834 0 0 0 15.688873,8.1772071 4.9386744,
4.931834 0 0 0 10.7505,3.2460888 Z" id="path1415">
            </path>
        </g>
    </g>
</svg>
